<svg xmlns="http://www.w3.org/2000/svg" version="1.1" viewBox="84.24 40.09 87.51 59.31">
  <g fill="#2356ff" fill-rule="nonzero" stroke="none" stroke-width="1" stroke-linecap="butt" stroke-linejoin="miter" stroke-miterlimit="10" stroke-dasharray="" stroke-dashoffset="0" font-family="none" font-weight="none" font-size="none" text-anchor="none" style="mix-blend-mode: normal">
    <g transform="translate(-1.29855,-4.75373) scale(0.09275,0.09275)">
      <g transform="translate(0,1504) scale(0.1,-0.1)">
        <path d="M13655,10198c-60,-5 -115,-14 -122,-20c-18,-15 -17,-1752 0,-1767c7,-5 66,-23 132,-39c218,-55 522,-137 548,-147c16,-7 17,43 17,972v980l-67,12c-90,16 -370,21 -508,9z"/>
        <path d="M13230,10133c-14,-2 -56,-13 -95,-25c-253,-73 -521,-193 -665,-299c-162,-119 -365,-343 -435,-479c-43,-84 -97,-245 -127,-375c-27,-113 -31,-149 -31,-280c0,-220 15,-316 80,-504c30,-85 97,-210 152,-285c42,-56 180,-192 249,-246c50,-38 111,-80 117,-80c2,0 20,-11 40,-24c75,-51 307,-156 450,-204c175,-59 363,-117 420,-131c37,-9 390,-96 425,-105c8,-2 60,-16 115,-31c55,-15 134,-36 175,-46c307,-81 366,-97 465,-131c176,-59 379,-168 443,-235c104,-111 143,-208 143,-353c0,-113 -9,-159 -50,-258c-52,-130 -147,-229 -282,-298l-67,-33l-6,-128c-4,-70 -14,-174 -22,-230c-15,-108 -79,-372 -114,-469c-12,-35 -16,-62 -11,-67c6,-6 58,1 133,18c635,143 1128,547 1265,1039c54,196 72,360 61,571c-21,431 -233,774 -618,999c-74,43 -280,143 -355,171c-158,60 -400,137 -569,180c-98,25 -183,48 -187,51c-5,3 -37,11 -71,18c-35,8 -108,26 -163,41c-55,15 -149,40 -210,55c-503,128 -675,187 -840,292c-112,71 -203,176 -232,268c-25,79 -24,256 1,330c70,208 216,355 418,422c34,11 67,24 71,28c5,4 9,30 9,56c0,27 -1,214 -1,417l-1,367l-27,-1c-16,-1 -39,-4 -53,-6z"/>
        <path d="M14530,9686v-424l63,-43c151,-103 226,-189 296,-342c38,-80 56,-163 64,-282l2,-40h440h439l7,34c11,51 -26,321 -58,426c-106,350 -322,644 -612,829c-158,102 -322,177 -517,240c-45,14 -91,26 -103,26h-21z"/>
        <path d="M16320,9211c0,-4 9,-36 19,-69c11,-34 24,-91 30,-129c8,-58 20,-126 35,-218c15,-83 15,-283 2,-395c-8,-68 -14,-125 -13,-126c21,-14 158,-94 161,-94c3,0 38,-20 78,-43c263,-157 688,-408 915,-539c79,-46 143,-86 143,-90c0,-4 -21,-19 -47,-34c-27,-15 -86,-51 -133,-79c-47,-29 -159,-95 -250,-147c-91,-52 -277,-162 -415,-245c-137,-82 -281,-167 -320,-188c-38,-21 -84,-48 -101,-61c-30,-22 -31,-24 -23,-81c33,-262 1,-608 -77,-826c-18,-50 -18,-57 6,-57c22,0 205,103 355,200c86,55 452,270 461,270c2,0 32,17 66,38c35,21 83,50 108,64c25,14 106,62 180,108c112,69 257,154 425,250c17,9 82,49 145,87c64,39 120,72 125,74c6,2 66,37 135,78c69,40 168,99 220,129c52,31 98,61 102,67c5,5 7,165 5,355l-2,345l-70,43c-38,23 -79,47 -90,52c-11,5 -38,21 -60,34c-22,14 -71,43 -110,65c-38,23 -101,61 -140,86c-38,25 -77,48 -85,52c-8,4 -61,35 -116,70c-56,35 -104,63 -107,63c-5,0 -493,284 -559,326c-36,23 -270,159 -423,247c-38,22 -138,82 -221,133c-84,52 -154,94 -156,94c-3,0 -44,23 -92,50c-87,50 -106,57 -106,41z"/>
        <path d="M11485,9177c-121,-66 -183,-102 -295,-172c-63,-39 -142,-86 -175,-105c-72,-42 -75,-44 -256,-148c-79,-46 -178,-104 -219,-129c-119,-72 -469,-277 -535,-313c-33,-18 -82,-47 -110,-65c-53,-34 -207,-127 -338,-204c-43,-25 -95,-56 -115,-69c-20,-12 -46,-27 -57,-32c-11,-5 -51,-29 -90,-52l-70,-43l-2,-345c-2,-190 0,-350 5,-355c4,-6 41,-30 82,-55c41,-24 108,-63 148,-87c40,-24 75,-43 77,-43c3,0 35,-20 72,-43c38,-24 73,-46 78,-48c9,-3 110,-62 273,-160c15,-9 74,-43 132,-76c58,-33 177,-104 265,-158c88,-54 180,-109 205,-123c25,-14 73,-43 108,-64c34,-21 64,-38 66,-38c8,0 393,-224 446,-260c53,-36 93,-60 268,-162c72,-41 122,-59 122,-43c0,2 -11,37 -24,77c-13,40 -29,107 -36,148c-6,41 -16,91 -20,110c-25,98 -31,397 -12,539l9,63l-36,25c-20,13 -121,74 -226,134c-104,61 -252,148 -329,195c-76,46 -140,84 -141,84c-4,0 -335,193 -405,237c-36,22 -86,52 -112,67c-27,15 -48,30 -48,34c0,4 64,44 143,90c201,117 319,185 592,347c132,79 308,181 390,229c83,47 155,89 162,94c9,6 9,38 -3,142c-10,91 -13,169 -9,240c7,95 13,148 46,363c6,38 19,95 30,129c29,93 30,92 -56,45z"/>
        <path d="M13529,6793c-1,-10 -2,-254 -3,-543c-1,-538 -3,-573 -46,-805c-61,-324 -275,-596 -560,-713c-205,-83 -510,-94 -723,-26c-156,50 -337,181 -458,332l-34,43l-105,-92c-161,-141 -530,-489 -530,-501c0,-17 85,-121 156,-190c194,-189 377,-300 639,-386c413,-137 886,-135 1305,4c266,89 486,230 716,459c178,178 307,384 397,635c54,150 76,252 101,461c22,175 24,239 25,646c1,423 0,453 -16,461c-19,10 -198,62 -383,111c-63,17 -137,38 -165,46c-52,15 -299,75 -309,75c-3,0 -7,-8 -7,-17z"/>
        <path d="M11877,6433c-10,-9 -8,-115 3,-218c37,-325 192,-649 414,-870c157,-156 366,-297 441,-297c56,0 177,65 245,131c93,91 171,290 186,474l6,82l-68,44c-102,66 -222,191 -262,274c-44,90 -82,219 -82,278c0,25 -3,61 -6,78l-6,31h-433c-237,0 -435,-3 -438,-7z"/>
      </g>
    </g>
  </g>
</svg>